<svg xmlns="http://www.w3.org/2000/svg" width="128" height="32" viewBox="0 0 128 32" shape-rendering="crispEdges">
  <rect width="128" height="32" fill="#0000"/>
  <g id="f1" transform="translate(0 0)">
    <rect x="10" y="8" width="12" height="12" fill="#F4B266"/>
    <rect x="8" y="6" width="4" height="4" fill="#E39A4B"/>
    <rect x="20" y="6" width="4" height="4" fill="#E39A4B"/>
    <rect x="13" y="12" width="2" height="2" fill="#2A2438"/>
    <rect x="17" y="12" width="2" height="2" fill="#2A2438"/>
    <rect x="15" y="15" width="2" height="2" fill="#F07EA8"/>
    <rect x="11" y="20" width="4" height="2" fill="#F8C985"/>
    <rect x="17" y="20" width="4" height="2" fill="#F8C985"/>
  </g>
  <g id="f2" transform="translate(32 0)">
    <rect x="10" y="9" width="12" height="12" fill="#F4B266"/>
    <rect x="8" y="7" width="4" height="4" fill="#E39A4B"/>
    <rect x="20" y="7" width="4" height="4" fill="#E39A4B"/>
    <rect x="13" y="13" width="2" height="1" fill="#2A2438"/>
    <rect x="17" y="13" width="2" height="1" fill="#2A2438"/>
    <rect x="15" y="16" width="2" height="2" fill="#F07EA8"/>
    <rect x="11" y="21" width="4" height="2" fill="#F8C985"/>
    <rect x="17" y="21" width="4" height="2" fill="#F8C985"/>
  </g>
  <g id="f3" transform="translate(64 0)">
    <rect x="10" y="8" width="12" height="12" fill="#F4B266"/>
    <rect x="8" y="6" width="4" height="4" fill="#E39A4B"/>
    <rect x="20" y="6" width="4" height="4" fill="#E39A4B"/>
    <rect x="13" y="12" width="2" height="2" fill="#2A2438"/>
    <rect x="17" y="12" width="2" height="2" fill="#2A2438"/>
    <rect x="14" y="15" width="4" height="2" fill="#F07EA8"/>
    <rect x="11" y="20" width="4" height="2" fill="#F8C985"/>
    <rect x="17" y="20" width="4" height="2" fill="#F8C985"/>
  </g>
  <g id="f4" transform="translate(96 0)">
    <rect x="10" y="9" width="12" height="12" fill="#F4B266"/>
    <rect x="8" y="7" width="4" height="4" fill="#E39A4B"/>
    <rect x="20" y="7" width="4" height="4" fill="#E39A4B"/>
    <rect x="14" y="13" width="4" height="1" fill="#2A2438"/>
    <rect x="15" y="16" width="2" height="2" fill="#F07EA8"/>
    <rect x="11" y="21" width="4" height="2" fill="#F8C985"/>
    <rect x="17" y="21" width="4" height="2" fill="#F8C985"/>
  </g>
</svg>
