<svg xmlns="http://www.w3.org/2000/svg" width="256" height="64" viewBox="0 0 256 64" shape-rendering="crispEdges">
  <rect width="256" height="64" fill="#0000"/>

  <!-- Frame 1 -->
  <g transform="translate(0 0)">
    <rect x="20" y="18" width="24" height="26" fill="#F3B265"/>
    <rect x="16" y="14" width="8" height="8" fill="#DF9345"/>
    <rect x="40" y="14" width="8" height="8" fill="#DF9345"/>
    <rect x="18" y="28" width="4" height="10" fill="#F7D08F"/>
    <rect x="42" y="28" width="4" height="10" fill="#F7D08F"/>
    <rect x="24" y="22" width="6" height="6" fill="#2A2331"/>
    <rect x="34" y="22" width="6" height="6" fill="#2A2331"/>
    <rect x="29" y="30" width="6" height="4" fill="#FF8FAE"/>
    <rect x="24" y="44" width="7" height="6" fill="#F3B265"/>
    <rect x="33" y="44" width="7" height="6" fill="#F3B265"/>
  </g>

  <!-- Frame 2 blink -->
  <g transform="translate(64 0)">
    <rect x="20" y="19" width="24" height="26" fill="#F3B265"/>
    <rect x="16" y="15" width="8" height="8" fill="#DF9345"/>
    <rect x="40" y="15" width="8" height="8" fill="#DF9345"/>
    <rect x="18" y="29" width="4" height="10" fill="#F7D08F"/>
    <rect x="42" y="29" width="4" height="10" fill="#F7D08F"/>
    <rect x="24" y="24" width="6" height="2" fill="#2A2331"/>
    <rect x="34" y="24" width="6" height="2" fill="#2A2331"/>
    <rect x="29" y="31" width="6" height="4" fill="#FF8FAE"/>
    <rect x="24" y="45" width="7" height="6" fill="#F3B265"/>
    <rect x="33" y="45" width="7" height="6" fill="#F3B265"/>
  </g>

  <!-- Frame 3 happy -->
  <g transform="translate(128 0)">
    <rect x="20" y="18" width="24" height="26" fill="#F3B265"/>
    <rect x="16" y="14" width="8" height="8" fill="#DF9345"/>
    <rect x="40" y="14" width="8" height="8" fill="#DF9345"/>
    <rect x="18" y="28" width="4" height="10" fill="#F7D08F"/>
    <rect x="42" y="28" width="4" height="10" fill="#F7D08F"/>
    <rect x="24" y="22" width="6" height="6" fill="#2A2331"/>
    <rect x="34" y="22" width="6" height="6" fill="#2A2331"/>
    <rect x="27" y="30" width="10" height="4" fill="#FF8FAE"/>
    <rect x="22" y="34" width="4" height="3" fill="#F28EB0"/>
    <rect x="38" y="34" width="4" height="3" fill="#F28EB0"/>
    <rect x="24" y="44" width="7" height="6" fill="#F3B265"/>
    <rect x="33" y="44" width="7" height="6" fill="#F3B265"/>
  </g>

  <!-- Frame 4 hop -->
  <g transform="translate(192 0)">
    <rect x="20" y="16" width="24" height="26" fill="#F3B265"/>
    <rect x="16" y="12" width="8" height="8" fill="#DF9345"/>
    <rect x="40" y="12" width="8" height="8" fill="#DF9345"/>
    <rect x="18" y="26" width="4" height="10" fill="#F7D08F"/>
    <rect x="42" y="26" width="4" height="10" fill="#F7D08F"/>
    <rect x="24" y="20" width="6" height="6" fill="#2A2331"/>
    <rect x="34" y="20" width="6" height="6" fill="#2A2331"/>
    <rect x="29" y="28" width="6" height="4" fill="#FF8FAE"/>
    <rect x="24" y="42" width="7" height="6" fill="#F3B265"/>
    <rect x="33" y="42" width="7" height="6" fill="#F3B265"/>
  </g>
</svg>
