<svg xmlns="http://www.w3.org/2000/svg" width="768" height="128" viewBox="0 0 768 128" shape-rendering="crispEdges">
  <defs>
    <style>
      .o{fill:#3a251d}.d{fill:#8b5b3b}.m{fill:#d59a62}.l{fill:#f2c48d}.c{fill:#ffd7ac}.p{fill:#f08cae}.e{fill:#1f1720}
    </style>
  </defs>
  <rect width="768" height="128" fill="#0000"/>

  <!-- Helper: each frame 128x128, hamster centered at ~64,70 -->
  <g id="f1" transform="translate(0 0)">
    <rect x="36" y="24" width="20" height="20" class="o"/><rect x="72" y="24" width="20" height="20" class="o"/>
    <rect x="40" y="28" width="12" height="12" class="d"/><rect x="76" y="28" width="12" height="12" class="d"/>
    <rect x="24" y="40" width="80" height="56" class="o"/>
    <rect x="28" y="44" width="72" height="48" class="m"/>
    <rect x="32" y="48" width="64" height="40" class="l"/>
    <rect x="36" y="52" width="56" height="32" class="c"/>
    <rect x="34" y="60" width="10" height="12" class="p"/><rect x="84" y="60" width="10" height="12" class="p"/>
    <rect x="48" y="56" width="8" height="8" class="e"/><rect x="72" y="56" width="8" height="8" class="e"/>
    <rect x="58" y="68" width="12" height="6" class="e"/>
    <rect x="40" y="96" width="20" height="16" class="d"/><rect x="68" y="96" width="20" height="16" class="d"/>
    <rect x="44" y="110" width="12" height="6" class="o"/><rect x="72" y="110" width="12" height="6" class="o"/>
  </g>

  <g id="f2" transform="translate(128 0)">
    <rect x="36" y="26" width="20" height="20" class="o"/><rect x="72" y="26" width="20" height="20" class="o"/>
    <rect x="40" y="30" width="12" height="12" class="d"/><rect x="76" y="30" width="12" height="12" class="d"/>
    <rect x="24" y="42" width="80" height="56" class="o"/>
    <rect x="28" y="46" width="72" height="48" class="m"/>
    <rect x="32" y="50" width="64" height="40" class="l"/>
    <rect x="36" y="54" width="56" height="32" class="c"/>
    <rect x="34" y="62" width="10" height="12" class="p"/><rect x="84" y="62" width="10" height="12" class="p"/>
    <rect x="48" y="60" width="8" height="3" class="e"/><rect x="72" y="60" width="8" height="3" class="e"/>
    <rect x="58" y="70" width="12" height="6" class="e"/>
    <rect x="40" y="98" width="20" height="16" class="d"/><rect x="68" y="98" width="20" height="16" class="d"/>
    <rect x="44" y="112" width="12" height="6" class="o"/><rect x="72" y="112" width="12" height="6" class="o"/>
  </g>

  <g id="f3" transform="translate(256 0)">
    <rect x="36" y="24" width="20" height="20" class="o"/><rect x="72" y="24" width="20" height="20" class="o"/>
    <rect x="40" y="28" width="12" height="12" class="d"/><rect x="76" y="28" width="12" height="12" class="d"/>
    <rect x="24" y="40" width="80" height="56" class="o"/>
    <rect x="28" y="44" width="72" height="48" class="m"/>
    <rect x="32" y="48" width="64" height="40" class="l"/>
    <rect x="36" y="52" width="56" height="32" class="c"/>
    <rect x="34" y="60" width="10" height="12" class="p"/><rect x="84" y="60" width="10" height="12" class="p"/>
    <rect x="48" y="56" width="8" height="8" class="e"/><rect x="72" y="56" width="8" height="8" class="e"/>
    <rect x="54" y="68" width="20" height="6" class="e"/>
    <rect x="40" y="96" width="20" height="16" class="d"/><rect x="68" y="96" width="20" height="16" class="d"/>
    <rect x="44" y="110" width="12" height="6" class="o"/><rect x="72" y="110" width="12" height="6" class="o"/>
  </g>

  <g id="f4" transform="translate(384 0)">
    <rect x="36" y="18" width="20" height="20" class="o"/><rect x="72" y="18" width="20" height="20" class="o"/>
    <rect x="40" y="22" width="12" height="12" class="d"/><rect x="76" y="22" width="12" height="12" class="d"/>
    <rect x="24" y="34" width="80" height="56" class="o"/>
    <rect x="28" y="38" width="72" height="48" class="m"/>
    <rect x="32" y="42" width="64" height="40" class="l"/>
    <rect x="36" y="46" width="56" height="32" class="c"/>
    <rect x="34" y="54" width="10" height="12" class="p"/><rect x="84" y="54" width="10" height="12" class="p"/>
    <rect x="48" y="50" width="8" height="8" class="e"/><rect x="72" y="50" width="8" height="8" class="e"/>
    <rect x="58" y="62" width="12" height="6" class="e"/>
    <rect x="40" y="90" width="20" height="16" class="d"/><rect x="68" y="90" width="20" height="16" class="d"/>
    <rect x="44" y="104" width="12" height="6" class="o"/><rect x="72" y="104" width="12" height="6" class="o"/>
  </g>

  <g id="f5" transform="translate(512 0)">
    <rect x="32" y="24" width="20" height="20" class="o"/>
    <rect x="36" y="28" width="12" height="12" class="d"/>
    <rect x="24" y="40" width="80" height="56" class="o"/>
    <rect x="28" y="44" width="72" height="48" class="m"/>
    <rect x="32" y="48" width="64" height="40" class="l"/>
    <rect x="36" y="52" width="56" height="32" class="c"/>
    <rect x="36" y="60" width="10" height="12" class="p"/>
    <rect x="52" y="56" width="8" height="8" class="e"/>
    <rect x="60" y="68" width="10" height="6" class="e"/>
    <rect x="40" y="96" width="20" height="16" class="d"/><rect x="68" y="96" width="20" height="16" class="d"/>
    <rect x="44" y="110" width="12" height="6" class="o"/><rect x="72" y="110" width="12" height="6" class="o"/>
  </g>

  <g id="f6" transform="translate(640 0)">
    <rect x="76" y="24" width="20" height="20" class="o"/>
    <rect x="80" y="28" width="12" height="12" class="d"/>
    <rect x="24" y="40" width="80" height="56" class="o"/>
    <rect x="28" y="44" width="72" height="48" class="m"/>
    <rect x="32" y="48" width="64" height="40" class="l"/>
    <rect x="36" y="52" width="56" height="32" class="c"/>
    <rect x="82" y="60" width="10" height="12" class="p"/>
    <rect x="68" y="56" width="8" height="8" class="e"/>
    <rect x="58" y="68" width="10" height="6" class="e"/>
    <rect x="40" y="96" width="20" height="16" class="d"/><rect x="68" y="96" width="20" height="16" class="d"/>
    <rect x="44" y="110" width="12" height="6" class="o"/><rect x="72" y="110" width="12" height="6" class="o"/>
  </g>
</svg>
