<svg xmlns="http://www.w3.org/2000/svg" width="288" height="48" viewBox="0 0 288 48" shape-rendering="crispEdges">
  <defs>
    <style>
      .o{fill:#5a3e2b}.s{fill:#8a5f3f}.f{fill:#f3be78}.h{fill:#f8d6a1}.p{fill:#ff8fb1}.e{fill:#261d2a}
    </style>
  </defs>
  <rect width="288" height="48" fill="#0000"/>

  <!-- frame 1 idle -->
  <g transform="translate(0 0)">
    <rect x="15" y="8" width="18" height="4" class="s"/>
    <rect x="10" y="11" width="28" height="20" class="f"/>
    <rect x="8" y="13" width="4" height="8" class="s"/><rect x="36" y="13" width="4" height="8" class="s"/>
    <rect x="11" y="16" width="2" height="6" class="h"/><rect x="35" y="16" width="2" height="6" class="h"/>
    <rect x="14" y="18" width="5" height="5" class="e"/><rect x="29" y="18" width="5" height="5" class="e"/>
    <rect x="21" y="24" width="6" height="3" class="p"/>
    <rect x="10" y="27" width="28" height="4" class="h"/>
    <rect x="14" y="31" width="7" height="5" class="f"/><rect x="27" y="31" width="7" height="5" class="f"/>
    <rect x="18" y="36" width="4" height="2" class="o"/><rect x="26" y="36" width="4" height="2" class="o"/>
  </g>

  <!-- frame 2 blink -->
  <g transform="translate(48 0)">
    <rect x="15" y="9" width="18" height="4" class="s"/>
    <rect x="10" y="12" width="28" height="20" class="f"/>
    <rect x="8" y="14" width="4" height="8" class="s"/><rect x="36" y="14" width="4" height="8" class="s"/>
    <rect x="11" y="17" width="2" height="6" class="h"/><rect x="35" y="17" width="2" height="6" class="h"/>
    <rect x="14" y="20" width="5" height="2" class="e"/><rect x="29" y="20" width="5" height="2" class="e"/>
    <rect x="21" y="25" width="6" height="3" class="p"/>
    <rect x="10" y="28" width="28" height="4" class="h"/>
    <rect x="14" y="32" width="7" height="5" class="f"/><rect x="27" y="32" width="7" height="5" class="f"/>
    <rect x="18" y="37" width="4" height="2" class="o"/><rect x="26" y="37" width="4" height="2" class="o"/>
  </g>

  <!-- frame 3 happy -->
  <g transform="translate(96 0)">
    <rect x="15" y="8" width="18" height="4" class="s"/>
    <rect x="10" y="11" width="28" height="20" class="f"/>
    <rect x="8" y="13" width="4" height="8" class="s"/><rect x="36" y="13" width="4" height="8" class="s"/>
    <rect x="11" y="16" width="2" height="6" class="h"/><rect x="35" y="16" width="2" height="6" class="h"/>
    <rect x="14" y="18" width="5" height="5" class="e"/><rect x="29" y="18" width="5" height="5" class="e"/>
    <rect x="20" y="24" width="8" height="3" class="p"/>
    <rect x="16" y="24" width="3" height="3" class="p"/><rect x="29" y="24" width="3" height="3" class="p"/>
    <rect x="10" y="27" width="28" height="4" class="h"/>
    <rect x="14" y="31" width="7" height="5" class="f"/><rect x="27" y="31" width="7" height="5" class="f"/>
    <rect x="18" y="36" width="4" height="2" class="o"/><rect x="26" y="36" width="4" height="2" class="o"/>
  </g>

  <!-- frame 4 jump -->
  <g transform="translate(144 0)">
    <rect x="15" y="6" width="18" height="4" class="s"/>
    <rect x="10" y="9" width="28" height="20" class="f"/>
    <rect x="8" y="11" width="4" height="8" class="s"/><rect x="36" y="11" width="4" height="8" class="s"/>
    <rect x="11" y="14" width="2" height="6" class="h"/><rect x="35" y="14" width="2" height="6" class="h"/>
    <rect x="14" y="16" width="5" height="5" class="e"/><rect x="29" y="16" width="5" height="5" class="e"/>
    <rect x="21" y="22" width="6" height="3" class="p"/>
    <rect x="10" y="25" width="28" height="4" class="h"/>
    <rect x="14" y="29" width="7" height="5" class="f"/><rect x="27" y="29" width="7" height="5" class="f"/>
    <rect x="18" y="34" width="4" height="2" class="o"/><rect x="26" y="34" width="4" height="2" class="o"/>
  </g>

  <!-- frame 5 side-left -->
  <g transform="translate(192 0)">
    <rect x="13" y="9" width="20" height="4" class="s"/>
    <rect x="10" y="12" width="28" height="19" class="f"/>
    <rect x="8" y="14" width="4" height="8" class="s"/>
    <rect x="11" y="17" width="2" height="6" class="h"/>
    <rect x="16" y="19" width="5" height="5" class="e"/>
    <rect x="21" y="25" width="5" height="3" class="p"/>
    <rect x="10" y="28" width="28" height="3" class="h"/>
    <rect x="14" y="31" width="7" height="5" class="f"/><rect x="27" y="31" width="7" height="5" class="f"/>
    <rect x="18" y="36" width="4" height="2" class="o"/><rect x="26" y="36" width="4" height="2" class="o"/>
  </g>

  <!-- frame 6 side-right -->
  <g transform="translate(240 0)">
    <rect x="15" y="9" width="20" height="4" class="s"/>
    <rect x="10" y="12" width="28" height="19" class="f"/>
    <rect x="36" y="14" width="4" height="8" class="s"/>
    <rect x="35" y="17" width="2" height="6" class="h"/>
    <rect x="27" y="19" width="5" height="5" class="e"/>
    <rect x="22" y="25" width="5" height="3" class="p"/>
    <rect x="10" y="28" width="28" height="3" class="h"/>
    <rect x="14" y="31" width="7" height="5" class="f"/><rect x="27" y="31" width="7" height="5" class="f"/>
    <rect x="18" y="36" width="4" height="2" class="o"/><rect x="26" y="36" width="4" height="2" class="o"/>
  </g>
</svg>
